HIERARCHY
ROOT Hips
{
	OFFSET -0.001795 -0.223333 0.028219
	CHANNELS 6 Xposition Yposition Zposition Zrotation Yrotation Xrotation 
	JOINT LeftUpLeg
	{
		OFFSET 0.069520 -0.091406 -0.006815
		CHANNELS 3 Zrotation Yrotation Xrotation
		JOINT LeftLeg
		{
			OFFSET 0.034277 -0.375199 -0.004496
			CHANNELS 3 Zrotation Yrotation Xrotation
			JOINT LeftFoot
			{
				OFFSET -0.013596 -0.397961 -0.043693
				CHANNELS 3 Zrotation Yrotation Xrotation
				JOINT LeftToe
				{
					OFFSET 0.026358 -0.055791 0.119288
					CHANNELS 3 Zrotation Yrotation Xrotation
					End Site
					{
						OFFSET 0.000000 0.000000 0.000000
					}
				}
			}
		}
	}
	JOINT RightUpLeg
	{
		OFFSET -0.067670 -0.090522 -0.004320
		CHANNELS 3 Zrotation Yrotation Xrotation
		JOINT RightLeg
		{
			OFFSET -0.038290 -0.382569 -0.008850
			CHANNELS 3 Zrotation Yrotation Xrotation
			JOINT RightFoot
			{
				OFFSET 0.015774 -0.398415 -0.042312
				CHANNELS 3 Zrotation Yrotation Xrotation
				JOINT RightToe
				{
					OFFSET -0.025372 -0.048144 0.123348
					CHANNELS 3 Zrotation Yrotation Xrotation
					End Site
					{
						OFFSET 0.000000 0.000000 0.000000
					}
				}
			}
		}
	}
	JOINT Spine
	{
		OFFSET -0.002533 0.108963 -0.026696
		CHANNELS 3 Zrotation Yrotation Xrotation
		JOINT Spine1
		{
			OFFSET 0.005487 0.135180 0.001092
			CHANNELS 3 Zrotation Yrotation Xrotation
			JOINT Spine2
			{
				OFFSET 0.001457 0.052922 0.025425
				CHANNELS 3 Zrotation Yrotation Xrotation
				JOINT Neck
				{
					OFFSET -0.002778 0.213870 -0.042857
					CHANNELS 3 Zrotation Yrotation Xrotation
					JOINT Head
					{
						OFFSET 0.005152 0.064970 0.051349
						CHANNELS 3 Zrotation Yrotation Xrotation
						End Site
						{
							OFFSET 0.000000 0.000000 0.000000
						}
					}
				}
				JOINT LeftShoulder
				{
					OFFSET 0.078845 0.121749 -0.034090
					CHANNELS 3 Zrotation Yrotation Xrotation
					JOINT LeftArm
					{
						OFFSET 0.090977 0.030469 -0.008868
						CHANNELS 3 Zrotation Yrotation Xrotation
						JOINT LeftForeArm
						{
							OFFSET 0.259612 -0.012772 -0.027456
							CHANNELS 3 Zrotation Yrotation Xrotation
							JOINT LeftHand
							{
								OFFSET 0.249234 0.008986 -0.001171
								CHANNELS 3 Zrotation Yrotation Xrotation
								End Site
								{
									OFFSET 0.000000 0.000000 0.000000
								}
							}
						}
					}
				}
				JOINT RightShoulder
				{
					OFFSET -0.081759 0.118833 -0.038615
					CHANNELS 3 Zrotation Yrotation Xrotation
					JOINT RightArm
					{
						OFFSET -0.096012 0.032551 -0.009143
						CHANNELS 3 Zrotation Yrotation Xrotation
						JOINT RightForeArm
						{
							OFFSET -0.253742 -0.013329 -0.021401
							CHANNELS 3 Zrotation Yrotation Xrotation
							JOINT RightHand
							{
								OFFSET -0.255298 0.007772 -0.005559
								CHANNELS 3 Zrotation Yrotation Xrotation
								End Site
								{
									OFFSET 0.000000 0.000000 0.000000
								}
							}
						}
					}
				}
			}
		}
	}
}
MOTION
Frames: 7
Frame Time: 0.050000
-0.023059 0.836089 0.104110 5.099997 -16.616468 -5.770371 5.881721 1.527784 -44.555635 -9.149290 13.153836 73.756917 5.471527 11.828254 4.657472 0.000000 0.000000 0.000000 -9.129297 1.108395 -16.586804 8.337068 3.387715 61.857562 -9.265304 -21.465338 -11.492407 0.000000 0.000000 0.000000 7.101123 -1.177967 55.213825 -5.188860 1.580804 -22.857744 2.443014 14.840791 35.607208 19.011891 -7.211558 -33.228162 0.000000 0.000000 0.000000 -12.662686 -13.154725 4.249211 -54.663819 -12.844813 -4.405884 -10.065885 -53.561662 7.505293 0.000000 0.000000 0.000000 10.499131 0.748774 1.060526 31.121555 30.986992 1.690817 -25.573501 37.839320 -5.539616 0.000000 0.000000 0.000000 
-0.022582 0.862000 0.136257 5.221908 -17.481647 -5.606743 5.068487 1.114364 -42.090985 -8.606219 9.670023 58.554496 3.888686 8.702454 4.665346 0.000000 0.000000 0.000000 -10.897064 0.753978 -8.126355 6.391063 3.154679 49.784217 -8.603752 -18.153659 -10.252701 0.000000 0.000000 0.000000 4.986744 -0.117636 50.756465 -4.738348 1.443119 -21.630469 3.495127 16.211394 36.504385 19.645019 -7.566341 -32.994842 0.000000 0.000000 0.000000 -12.545043 -12.299306 3.838531 -57.036594 -9.926797 -6.038121 -11.846542 -54.482826 8.705337 0.000000 0.000000 0.000000 11.494588 -0.384557 0.661281 35.589837 31.198401 2.358690 -24.155779 37.769612 -4.807294 0.000000 0.000000 0.000000 
-0.022384 0.875039 0.174813 4.578598 -19.662151 -5.038759 4.783678 0.996701 -38.211977 -7.140033 6.859920 46.336746 2.443110 6.273932 6.950398 0.000000 0.000000 0.000000 -11.672554 0.866004 -1.855499 5.619738 2.755147 42.064549 -8.053952 -15.740233 -9.177261 0.000000 0.000000 0.000000 2.466849 1.067481 45.966631 -5.574671 1.625934 -21.385655 4.775363 17.321959 37.158236 17.467920 -6.396679 -32.613433 0.000000 0.000000 0.000000 -11.680079 -9.793038 2.885106 -58.360855 -7.259704 -7.623811 -13.317274 -53.625821 9.538621 0.000000 0.000000 0.000000 15.293615 0.027230 1.090418 37.453377 28.602062 1.513446 -20.017275 40.264021 -3.836123 0.000000 0.000000 0.000000 
-0.022660 0.878097 0.220412 4.304698 -21.392751 -5.299827 3.699661 0.442796 -33.671545 -5.364928 5.540795 41.842556 3.255454 7.426346 6.506440 0.000000 0.000000 0.000000 -13.008384 1.302576 3.928272 5.375873 2.281581 36.927607 -7.527801 -14.195478 -7.474126 0.000000 0.000000 0.000000 -0.421945 2.048585 41.564183 -5.511734 1.571295 -19.370496 4.353203 18.573735 36.056499 17.118574 -6.692832 -30.057571 0.000000 0.000000 0.000000 -10.308027 -9.571073 2.852610 -59.689472 -7.144021 -7.743323 -8.905732 -52.203463 7.057959 0.000000 0.000000 0.000000 18.298620 0.139066 1.269381 40.959765 25.604596 0.887391 -15.730821 40.264375 -2.332277 0.000000 0.000000 0.000000 
-0.023113 0.874458 0.268476 4.064956 -22.273482 -6.844369 3.130290 0.087118 -29.974922 -4.907820 6.087009 44.027310 4.535788 9.482564 3.755299 0.000000 0.000000 0.000000 -13.304672 1.560897 7.011425 4.706481 3.131747 40.143045 -6.771959 -14.412611 -2.105953 0.000000 0.000000 0.000000 -2.453024 2.519980 38.548096 -6.332177 1.831780 -18.258377 3.862503 17.982127 35.354145 15.910156 -7.018545 -26.413074 0.000000 0.000000 0.000000 -10.820950 -9.752257 3.143341 -58.429623 -8.193241 -6.952601 -1.128787 -51.549040 3.434310 0.000000 0.000000 0.000000 20.841757 0.275589 1.129182 43.978186 21.848668 -0.220197 -9.621047 41.214064 -0.325269 0.000000 0.000000 0.000000 
-0.023559 0.876674 0.315103 4.369615 -22.491426 -8.596788 1.359386 -0.621988 -26.105006 -3.734173 5.882018 45.229219 4.295462 8.965932 1.934698 0.000000 0.000000 0.000000 -13.884548 1.581503 6.490139 4.909635 4.639314 48.552386 -4.586752 -13.177541 6.963947 0.000000 0.000000 0.000000 -3.139961 2.403543 36.054624 -9.196815 2.958475 -15.423027 2.749275 15.573061 33.113232 14.716080 -7.503223 -22.655994 0.000000 0.000000 0.000000 -10.929817 -11.351652 4.199082 -57.220199 -11.551198 -4.906774 11.768403 -51.704805 -2.370839 0.000000 0.000000 0.000000 23.442157 0.907825 0.727353 46.872220 18.060688 -1.174368 -4.507807 38.409306 1.041286 0.000000 0.000000 0.000000 
-0.024811 0.885343 0.357544 4.424033 -22.032987 -10.267604 0.446834 -0.972882 -20.624446 -5.240090 6.693309 44.232303 4.705028 9.823875 1.016353 0.000000 0.000000 0.000000 -13.917580 1.239261 2.874526 8.286047 4.954001 60.499545 -4.512882 -15.581017 18.753705 0.000000 0.000000 0.000000 -4.735437 2.610865 34.379817 -8.929801 2.913088 -15.144385 2.306106 14.196481 34.279953 11.685591 -5.761527 -22.121270 0.000000 0.000000 0.000000 -10.432848 -13.454352 5.319143 -55.455639 -17.973692 -1.784123 25.774149 -51.252816 -8.696972 0.000000 0.000000 0.000000 23.534106 1.062844 0.403303 50.630297 15.246207 -2.131784 -0.566445 35.945331 2.100825 0.000000 0.000000 0.000000 
